{"title":"The.Eagle.2011.R5.x264.Feel-Free","uid":6318416,"size":1185539013,"categoryP":"video","categoryS":"movies","magnet":"?xt=urn:btih:aabdc1619f129bfb120c91967a2266a9e4f50737&amp;dn=The.Eagle.2011.R5.x264.Feel-Free&amp;tr=udp%3A%2F%2Ftracker.openbittorrent.com%3A80&amp;tr=udp%3A%2F%2Fopen.demonii.com%3A1337&amp;tr=udp%3A%2F%2Ftracker.coppersurfer.tk%3A6969&amp;tr=udp%3A%2F%2Fexodus.desync.com%3A6969","seeders":1,"leechers":0,"uploader":"qwersd","files":-1,"time":1302740486,"description":"Genre: Adventure | Drama\nLanguage:English\nIMDb:http://www.imdb.com/title/tt1034389/\nSource:DVD5/IMAGINE Thanks!\nSubtitles:Romana/English.foreign.parts\n\n\nFormat : MPEG-4\nFormat profile : Base Media\nCodec ID : isom\nFile size : 1.10 GiB\nDuration : 1h 49mn\nOverall bit rate : 1 442 Kbps\n\n\nVideo\nFormat settings, CABAC : Yes\nFormat settings, ReFrames : 4 frames\nCodec ID : avc1\nCodec ID/Info : Advanced Video Coding\nDuration : 1h 49mn\nBit rate mode : Variable\nBit rate : 1 267 Kbps\nWidth : 720 pixels\nHeight : 304 pixels\nDisplay aspect ratio : 2.35:1\nFrame rate mode : Constant\nFrame rate : 25.000 fps\nColor space : YUV\nChroma subsampling : 4:2:0\nBit depth : 8 bits\nScan type : Progressive\nBits/(Pixel*Frame) : 0.232\nStream size : 1 006 MiB (89%)\nWriting library : x264\n\n\nAudio\nID : 2\nFormat : AAC\nFormat/Info : Advanced Audio Codec\nFormat version : Version 4\nFormat profile : LC\nCodec ID : 40\nDuration : 1h 49mn\nBit rate mode : Variable\nBit rate : 152 Kbps\nChannel(s) : 2 channels\nChannel positions : Front: L R\nSampling rate : 44.1 KHz\nStream size : 119 MiB (11%)\n\n\n\nPlot:\nIn Roman-ruled Britain, a young Roman soldier endeavors to honor his father's memory by finding his lost legion's golden emblem.\n &lt;a href=&quot;\nhttp://www.pix2links.com/images/16226052126312147835.png&quot; rel=&quot;nofollow&quot; target=&quot;_NEW&quot;&gt;\nhttp://www.pix2links.com/images/16226052126312147835.png&lt;/a&gt; &lt;a href=&quot;\nhttp://www.pix2links.com/images/71770803194708527056.png&quot; rel=&quot;nofollow&quot; target=&quot;_NEW&quot;&gt;\nhttp://www.pix2links.com/images/71770803194708527056.png&lt;/a&gt; &lt;a href=&quot;\nhttp://www.pix2links.com/images/39200592130597458641.png&quot; rel=&quot;nofollow&quot; target=&quot;_NEW&quot;&gt;\nhttp://www.pix2links.com/images/39200592130597458641.png&lt;/a&gt; &lt;a href=&quot;\nhttp://www.pix2links.com/images/78520830873695864313.png&quot; rel=&quot;nofollow&quot; target=&quot;_NEW&quot;&gt;\nhttp://www.pix2links.com/images/78520830873695864313.png&lt;/a&gt;\n\nGreets:\n\nINK,CRYS,IMAGINE,LKRG,FXG,3Li,FLAWL3SS,TA,iLLUSiON,ViSiON,DTRG SAFCuk009,LU,TheFalcon007,MYSTiC,PrisM,Noir,WBZ,LAP,Rx,Kingdom,SAFCuk009+Fabreezy,HDLiTE,TWiZTED,ExtraTorrentRG.ELEKTRI4KA,MAGNAT,CM8\nAnd to all the other p2p grps past and present.","torrent":{"xt":"urn:btih:aabdc1619f129bfb120c91967a2266a9e4f50737","amp;dn":"The.Eagle.2011.R5.x264.Feel-Free","amp;tr":["udp%3A%2F%2Ftracker.openbittorrent.com%3A80","udp%3A%2F%2Fopen.demonii.com%3A1337","udp%3A%2F%2Ftracker.coppersurfer.tk%3A6969","udp%3A%2F%2Fexodus.desync.com%3A6969"],"infoHash":"aabdc1619f129bfb120c91967a2266a9e4f50737","infoHashBuffer":{"type":"Buffer","data":[170,189,193,97,159,18,155,251,18,12,145,150,122,34,102,169,228,245,7,55]},"announce":[],"urlList":[]}}